solid CATIA STL
  facet normal  0.000000e+000  0.000000e+000  1.000000e+000
    outer loop
      vertex  3.440704e+001  2.052480e+001  5.000000e+000
      vertex  6.427206e+001  2.052480e+001  5.000000e+000
      vertex  3.440704e+001  1.758211e+002  5.000000e+000
    endloop
  endfacet
  facet normal  -0.000000e+000  0.000000e+000  1.000000e+000
    outer loop
      vertex  3.440704e+001  1.758211e+002  5.000000e+000
      vertex  6.427206e+001  2.052480e+001  5.000000e+000
      vertex  6.427206e+001  1.758211e+002  5.000000e+000
    endloop
  endfacet
  facet normal  3.942320e-030  0.000000e+000 -1.000000e+000
    outer loop
      vertex  3.440704e+001  2.052480e+001  0.000000e+000
      vertex  3.440704e+001  1.758211e+002  0.000000e+000
      vertex  6.427206e+001  2.052480e+001  1.177375e-028
    endloop
  endfacet
  facet normal  0.000000e+000 -7.581472e-031 -1.000000e+000
    outer loop
      vertex  6.427206e+001  2.052480e+001  1.177375e-028
      vertex  3.440704e+001  1.758211e+002  0.000000e+000
      vertex  6.427206e+001  1.758211e+002  0.000000e+000
    endloop
  endfacet
  facet normal  0.000000e+000  9.999999e-001  0.000000e+000
    outer loop
      vertex  3.440704e+001  1.758211e+002  5.000000e+000
      vertex  6.427206e+001  1.758211e+002  5.000000e+000
      vertex  3.440704e+001  1.758211e+002  0.000000e+000
    endloop
  endfacet
  facet normal  0.000000e+000  9.999999e-001  0.000000e+000
    outer loop
      vertex  3.440704e+001  1.758211e+002  0.000000e+000
      vertex  6.427206e+001  1.758211e+002  5.000000e+000
      vertex  6.427206e+001  1.758211e+002  0.000000e+000
    endloop
  endfacet
  facet normal  9.999999e-001  -0.000000e+000  0.000000e+000
    outer loop
      vertex  6.427206e+001  1.758211e+002  5.000000e+000
      vertex  6.427206e+001  2.052480e+001  5.000000e+000
      vertex  6.427206e+001  1.758211e+002  0.000000e+000
    endloop
  endfacet
  facet normal  9.999999e-001  0.000000e+000  0.000000e+000
    outer loop
      vertex  6.427206e+001  1.758211e+002  0.000000e+000
      vertex  6.427206e+001  2.052480e+001  5.000000e+000
      vertex  6.427206e+001  2.052480e+001  1.177375e-028
    endloop
  endfacet
  facet normal  0.000000e+000 -9.999999e-001  0.000000e+000
    outer loop
      vertex  6.427206e+001  2.052480e+001  5.000000e+000
      vertex  3.440704e+001  2.052480e+001  5.000000e+000
      vertex  6.427206e+001  2.052480e+001  1.177375e-028
    endloop
  endfacet
  facet normal  -0.000000e+000 -9.999999e-001  0.000000e+000
    outer loop
      vertex  6.427206e+001  2.052480e+001  1.177375e-028
      vertex  3.440704e+001  2.052480e+001  5.000000e+000
      vertex  3.440704e+001  2.052480e+001  0.000000e+000
    endloop
  endfacet
  facet normal -9.999999e-001  -0.000000e+000  0.000000e+000
    outer loop
      vertex  3.440704e+001  2.052480e+001  5.000000e+000
      vertex  3.440704e+001  1.758211e+002  5.000000e+000
      vertex  3.440704e+001  2.052480e+001  0.000000e+000
    endloop
  endfacet
  facet normal -9.999999e-001  0.000000e+000  0.000000e+000
    outer loop
      vertex  3.440704e+001  2.052480e+001  0.000000e+000
      vertex  3.440704e+001  1.758211e+002  5.000000e+000
      vertex  3.440704e+001  1.758211e+002  0.000000e+000
    endloop
  endfacet
endsolid CATIA STL
